<?xml version="1.0" standalone="no"?>
<!DOCTYPE svg PUBLIC "-//W3C//DTD SVG 20010904//EN"
 "http://www.w3.org/TR/2001/REC-SVG-20010904/DTD/svg10.dtd">
<svg version="1.0" xmlns="http://www.w3.org/2000/svg"
 width="500.000000pt" height="500.000000pt" viewBox="0 0 500.000000 500.000000"
 preserveAspectRatio="xMidYMid meet">

<g transform="translate(0.000000,500.000000) scale(0.100000,-0.100000)"
fill="#0b2e43" stroke="none">
<path d="M2400 3987 c0 -13 3 -46 7 -73 6 -44 8 -46 13 -19 4 23 12 31 34 35
68 12 58 73 -13 78 -38 3 -41 1 -41 -21z m68 4 c23 -14 10 -46 -21 -49 -24 -3
-27 0 -27 27 0 32 19 41 48 22z"/>
<path d="M2616 3975 c-14 -94 -15 -105 -2 -105 8 0 28 -3 46 -7 24 -4 31 -3
26 5 -4 7 -21 12 -37 12 -26 0 -30 3 -27 22 2 16 12 25 33 29 l30 7 -27 1
c-23 1 -28 6 -28 27 0 25 2 26 41 20 24 -4 38 -3 35 3 -3 5 -24 11 -46 13 -38
3 -40 2 -44 -27z"/>
<path d="M2825 3958 c-21 -63 -32 -118 -25 -118 5 0 12 11 16 25 3 14 8 25 11
25 16 0 43 -24 43 -38 0 -9 5 -24 11 -32 8 -11 9 -6 6 22 -4 26 -1 38 9 42 8
3 14 17 14 31 0 20 -8 29 -35 41 -42 17 -45 17 -50 2z m60 -22 c16 -12 17 -16
6 -30 -25 -30 -68 -12 -56 23 7 24 23 27 50 7z"/>
<path d="M2088 3947 l-26 -12 19 -63 c22 -68 18 -66 88 -40 36 13 19 20 -18 7
-27 -9 -35 -9 -42 2 -14 23 -10 39 10 39 11 0 23 5 27 11 4 8 -3 9 -23 5 -25
-6 -31 -4 -36 14 -4 14 0 23 11 26 9 3 26 9 37 14 l20 9 -20 0 c-11 0 -32 -5
-47 -12z"/>
<path d="M3014 3843 c-14 -30 -23 -61 -21 -67 3 -6 10 2 16 17 10 25 15 28 44
23 31 -6 31 -6 7 6 -14 7 -26 13 -28 14 -2 1 1 12 8 23 10 20 13 20 45 6 19
-7 35 -10 35 -6 0 4 -18 15 -41 24 l-41 16 -24 -56z"/>
<path d="M1927 3884 c-3 -6 -2 -16 4 -24 15 -25 10 -37 -22 -50 -31 -13 -39
-9 -52 25 -3 6 -7 7 -11 4 -9 -8 45 -119 57 -119 5 0 6 8 2 18 -18 43 -16 49
16 62 22 9 34 10 36 3 2 -5 10 -19 18 -29 11 -15 14 -15 14 -4 0 23 -55 124
-62 114z"/>
<path d="M3185 3748 l-36 -53 28 -22 c16 -13 35 -23 43 -23 8 0 0 10 -17 21
-27 17 -31 24 -23 40 12 21 25 24 35 9 3 -5 14 -10 23 -10 13 0 12 3 -6 16
-24 17 -26 22 -13 43 8 12 13 12 35 -2 14 -9 31 -17 38 -17 7 0 -4 11 -24 25
-20 14 -39 25 -42 25 -3 0 -21 -24 -41 -52z"/>
<path d="M1686 3740 c-24 -18 -33 -30 -23 -30 9 0 19 5 22 11 4 5 23 -12 44
-40 21 -28 41 -48 44 -44 4 3 -9 27 -28 53 -32 43 -33 48 -17 63 27 27 0 19
-42 -13z"/>
<path d="M3345 3635 c-27 -26 -32 -60 -11 -87 15 -21 66 -42 66 -28 0 6 -6 10
-13 10 -20 0 -47 33 -47 58 0 28 26 52 56 52 17 0 30 -10 44 -32 17 -29 20
-30 20 -11 0 25 -43 63 -72 63 -10 0 -30 -11 -43 -25z"/>
<path d="M3540 3515 c0 -6 6 -17 13 -24 12 -13 -5 -34 -64 -75 -13 -8 -20 -19
-16 -22 4 -4 28 9 53 30 45 34 48 35 66 19 10 -9 18 -12 18 -7 0 13 -69 91
-70 79z"/>
<path d="M1557 3463 c-3 -5 3 -17 14 -26 22 -19 25 -9 6 18 -8 10 -17 14 -20
8z"/>
<path d="M1380 3422 c0 -4 18 -18 40 -32 38 -24 39 -25 18 -32 -13 -3 -42 -6
-65 -7 -24 -1 -43 -4 -43 -8 0 -12 100 -75 112 -71 6 2 -9 17 -33 33 l-44 29
64 8 c35 4 65 9 67 11 4 4 -101 77 -111 77 -3 0 -5 -3 -5 -8z"/>
<path d="M2215 3248 c55 -43 55 -42 55 -621 0 -294 -3 -549 -6 -566 -4 -18
-20 -45 -36 -62 l-30 -29 421 0 c391 0 420 1 425 18 14 51 47 214 44 217 -2 2
-22 -20 -46 -50 -55 -72 -122 -120 -201 -145 -53 -17 -91 -20 -238 -20 l-174
0 3 588 c3 631 3 626 56 669 l27 23 -164 0 -164 0 28 -22z"/>
<path d="M3733 3206 c2 -26 -3 -31 -50 -49 -29 -11 -53 -24 -53 -29 0 -6 6 -8
13 -5 6 3 32 13 56 23 42 17 44 17 57 -1 21 -28 16 2 -7 50 -17 37 -18 38 -16
11z"/>
<path d="M1260 3213 c1 -12 119 -63 125 -54 2 5 -23 20 -56 35 -66 29 -69 29
-69 19z"/>
<path d="M1206 3058 c-9 -12 -16 -31 -16 -41 0 -24 44 -67 68 -67 62 0 103
102 46 116 -27 7 -44 -7 -43 -36 0 -9 4 -7 12 8 11 20 15 21 32 8 17 -12 18
-17 7 -40 -14 -31 -33 -40 -67 -32 -30 8 -44 50 -26 78 18 28 6 34 -13 6z"/>
<path d="M3730 2996 c-48 -13 -53 -27 -29 -80 7 -16 8 -12 4 15 -4 28 -2 38
11 43 26 10 34 7 34 -13 0 -11 4 -23 10 -26 6 -4 7 6 4 25 -6 27 -4 30 19 30
20 0 26 -6 31 -32 3 -17 9 -29 12 -26 3 3 2 22 -1 42 -8 40 -18 43 -95 22z"/>
<path d="M1174 2837 c-35 -31 -38 -82 -5 -109 74 -59 159 47 87 109 -34 29
-48 29 -82 0z m74 -13 c41 -29 19 -94 -33 -94 -52 0 -74 65 -33 94 12 9 27 16
33 16 6 0 21 -7 33 -16z"/>
<path d="M3724 2783 c-8 -32 6 -57 34 -61 16 -3 26 5 39 33 20 43 49 44 46 2
-1 -15 2 -25 8 -22 14 9 11 51 -6 65 -22 18 -42 6 -60 -35 -19 -46 -40 -41
-39 9 1 42 -13 48 -22 9z"/>
<path d="M1260 2586 c0 -34 -2 -36 -32 -37 -18 -1 -46 -5 -63 -9 -23 -6 -12
-8 43 -9 l72 -1 0 39 c0 22 -4 43 -10 46 -6 4 -10 -8 -10 -29z"/>
<path d="M3850 2600 c0 -18 -7 -20 -67 -20 -80 0 -75 -17 7 -22 50 -3 55 -5
53 -25 -2 -13 2 -23 7 -23 6 0 10 25 10 55 0 30 -2 55 -5 55 -3 0 -5 -9 -5
-20z"/>
<path d="M1100 1565 c0 -68 2 -75 20 -75 15 0 20 7 20 25 l0 25 1360 0 1360 0
0 -25 c0 -18 5 -25 20 -25 18 0 20 7 20 75 0 68 -2 75 -20 75 -15 0 -20 -7
-20 -25 l0 -25 -1360 0 -1360 0 0 25 c0 18 -5 25 -20 25 -18 0 -20 -7 -20 -75z"/>
</g>
</svg>
